<?xml version="1.0" encoding="UTF-8" standalone="no"?><!-- Generator: Gravit.io -->
<svg xmlns="http://www.w3.org/2000/svg" style="isolation:isolate"
     viewBox="0 0 32 32" width="32pt" height="32pt">
    <defs>
        <clipPath id="_clipPath_BLoXYWaI8ck7VumHgw8Xrx0VOdnusoxr">
            <rect width="32" height="32"/>
        </clipPath>
    </defs>
    <g clip-path="url(#_clipPath_BLoXYWaI8ck7VumHgw8Xrx0VOdnusoxr)">
        <g>
            <path d=" M 31.99 26.928 C 31.809 24.04 29.864 21.117 27.182 19.58 C 27.439 19.333 27.606 18.985 27.606 18.597 C 27.606 18.068 27.298 17.614 26.86 17.387 L 27.974 15.225 C 28.14 14.973 28.14 14.646 27.969 14.394 C 27.797 14.142 27.49 14.021 27.187 14.086 C 25.403 14.479 23.599 14.504 21.825 14.172 L 21.825 6.562 L 23.13 6.562 C 23.438 6.562 23.72 6.39 23.861 6.113 C 24.002 5.841 23.977 5.513 23.801 5.266 L 20.384 0.443 C 20.076 0.01 19.345 0.01 19.043 0.443 L 15.621 5.266 C 15.444 5.518 15.424 5.846 15.565 6.123 C 15.707 6.395 15.984 6.567 16.291 6.567 L 17.602 6.567 L 17.602 23.41 C 17.602 23.43 17.612 23.445 17.612 23.465 C 17.062 24.488 16.71 25.587 16.604 26.686 L 14.089 26.686 L 14.089 12.69 L 15.394 12.69 C 15.702 12.69 15.984 12.519 16.125 12.242 C 16.266 11.969 16.241 11.642 16.064 11.395 L 12.647 6.572 C 12.34 6.138 11.609 6.138 11.307 6.572 L 7.885 11.395 C 7.708 11.647 7.688 11.974 7.829 12.252 C 7.97 12.524 8.248 12.695 8.555 12.695 L 9.865 12.695 L 9.865 26.696 L 6.358 26.696 L 6.358 18.819 L 7.663 18.819 C 7.97 18.819 8.253 18.647 8.394 18.37 C 8.535 18.098 8.51 17.77 8.333 17.523 L 4.911 12.695 C 4.76 12.478 4.508 12.352 4.241 12.352 C 4.241 12.352 4.241 12.352 4.241 12.352 C 3.974 12.352 3.722 12.483 3.571 12.695 L 0.148 17.518 C -0.028 17.77 -0.048 18.098 0.093 18.375 C 0.234 18.647 0.511 18.819 0.819 18.819 L 2.129 18.819 L 2.129 26.691 L 0.506 26.691 C 0.3 26.691 0.128 26.862 0.128 27.069 C 0.128 27.275 0.3 27.447 0.506 27.447 L 16.563 27.447 C 16.584 28.581 16.916 29.503 17.556 30.183 C 18.957 31.675 21.618 31.882 24.279 31.882 C 25.852 31.882 27.036 31.796 28.024 31.605 C 29.954 31.126 31.769 30.34 31.97 27.865 C 32.006 27.568 32.006 27.26 31.99 26.928 Z  M 5.597 18.441 L 5.597 26.691 L 2.885 26.691 L 2.885 18.441 C 2.885 18.234 2.714 18.063 2.507 18.063 L 0.819 18.063 C 0.809 18.063 0.783 18.063 0.763 18.027 C 0.753 18.007 0.748 17.982 0.763 17.957 L 4.185 13.134 C 4.201 13.113 4.221 13.108 4.241 13.108 C 4.256 13.108 4.281 13.113 4.296 13.134 L 7.718 17.962 C 7.723 17.967 7.739 17.992 7.723 18.027 C 7.713 18.052 7.693 18.063 7.663 18.063 L 5.98 18.063 C 5.768 18.063 5.597 18.229 5.597 18.441 Z  M 13.333 12.312 L 13.333 26.691 L 10.621 26.691 L 10.621 12.312 C 10.621 12.105 10.45 11.934 10.243 11.934 L 8.555 11.934 C 8.545 11.934 8.515 11.934 8.5 11.899 C 8.489 11.884 8.484 11.853 8.5 11.828 L 11.922 7.005 C 11.952 6.965 11.997 6.96 12.027 7.005 L 15.45 11.833 C 15.455 11.838 15.47 11.864 15.455 11.899 C 15.444 11.924 15.424 11.934 15.394 11.934 L 13.711 11.934 C 13.499 11.934 13.333 12.105 13.333 12.312 Z  M 27.318 14.832 L 27.318 14.847 L 26.089 17.236 L 22.47 17.236 L 21.215 14.832 C 23.236 15.276 25.287 15.276 27.318 14.832 Z  M 26.85 18.602 C 26.85 18.934 26.578 19.207 26.245 19.212 L 22.314 19.212 C 21.981 19.207 21.709 18.94 21.709 18.602 C 21.709 18.264 21.981 17.992 22.319 17.992 L 26.24 17.992 C 26.578 17.992 26.85 18.264 26.85 18.602 Z  M 16.286 5.811 C 16.276 5.811 16.251 5.811 16.231 5.775 C 16.221 5.755 16.216 5.73 16.231 5.705 L 19.653 0.882 C 19.683 0.841 19.728 0.841 19.759 0.882 L 23.181 5.71 C 23.186 5.715 23.201 5.74 23.186 5.775 C 23.176 5.801 23.156 5.811 23.125 5.811 L 21.442 5.811 C 21.235 5.811 21.064 5.982 21.064 6.189 L 21.064 14.096 C 20.877 14.137 20.706 14.232 20.595 14.399 C 20.424 14.651 20.419 14.978 20.57 15.195 L 21.704 17.392 C 21.266 17.619 20.958 18.073 20.958 18.602 C 20.958 18.99 21.119 19.338 21.381 19.585 C 20.197 20.26 19.159 21.207 18.353 22.301 L 18.353 6.189 C 18.353 5.982 18.181 5.811 17.975 5.811 L 16.286 5.811 Z  M 31.219 27.795 C 31.219 27.795 31.219 27.8 31.219 27.8 C 31.083 29.458 30.171 30.289 27.863 30.864 C 26.94 31.04 25.801 31.126 24.279 31.126 C 21.906 31.126 19.31 30.955 18.106 29.669 C 17.526 29.055 17.274 28.208 17.324 27.089 C 17.324 27.084 17.329 27.079 17.329 27.069 C 17.329 27.064 17.324 27.059 17.324 27.054 C 17.324 27.029 17.324 27.003 17.324 26.973 C 17.496 24.191 19.572 21.258 22.268 19.963 L 22.304 19.963 C 22.309 19.963 22.309 19.963 22.314 19.963 L 26.235 19.963 C 26.24 19.963 26.24 19.963 26.245 19.963 L 26.285 19.963 C 28.982 21.258 31.053 24.191 31.229 26.973 C 31.25 27.265 31.245 27.532 31.219 27.795 Z "
                  fill="rgb(0,0,0)"/>
            <path d=" M 26.215 23.743 C 26.39 23.743 26.531 23.601 26.531 23.427 C 26.531 23.252 26.39 23.111 26.215 23.111 L 22.224 23.111 C 22.049 23.111 21.908 23.252 21.908 23.427 C 21.908 23.601 22.049 23.743 22.224 23.743 L 23.364 23.743 C 23.787 23.743 24.143 24.017 24.275 24.396 L 22.224 24.396 C 22.049 24.396 21.908 24.537 21.908 24.712 C 21.908 24.886 22.049 25.027 22.224 25.027 L 24.275 25.027 C 24.144 25.407 23.787 25.681 23.364 25.681 L 22.224 25.681 C 22.049 25.681 21.908 25.822 21.908 25.996 C 21.908 26.171 22.049 26.312 22.224 26.312 L 23.237 26.312 L 25.998 28.947 C 26.06 29.005 26.138 29.034 26.216 29.034 C 26.3 29.034 26.383 29 26.444 28.936 C 26.565 28.809 26.56 28.61 26.433 28.489 L 24.007 26.174 C 24.476 25.967 24.828 25.542 24.931 25.027 L 26.215 25.027 C 26.39 25.027 26.531 24.885 26.531 24.711 C 26.531 24.536 26.39 24.395 26.215 24.395 L 24.931 24.395 C 24.882 24.152 24.774 23.932 24.628 23.742 L 26.215 23.743 Z "
                  fill="rgb(0,0,0)"/>
        </g>
    </g>
</svg>