<?xml version="1.0" encoding="UTF-8" standalone="no"?><!-- Generator: Gravit.io -->
<svg xmlns="http://www.w3.org/2000/svg" style="isolation:isolate"
     viewBox="0 0 32 32" width="32pt" height="32pt">
    <defs>
        <clipPath id="_clipPath_ymlrPyUP4nFbdWgAYMRydakE2kS7DS0H">
            <rect width="32" height="32"/>
        </clipPath>
    </defs>
    <g clip-path="url(#_clipPath_ymlrPyUP4nFbdWgAYMRydakE2kS7DS0H)">
        <path d=" M 15.629 4.138 C 15.616 4.134 15.599 4.134 15.585 4.129 C 15.568 4.186 15.546 4.243 15.533 4.3 C 14.839 7.096 14.146 9.887 13.466 12.687 C 13.444 12.783 13.497 12.932 13.567 13.011 C 13.808 13.284 14.093 13.52 14.326 13.797 C 14.616 14.144 14.879 14.341 15.348 14.056 C 15.559 13.929 15.638 13.845 15.638 13.608 C 15.629 10.55 15.634 7.495 15.634 4.436 C 15.629 4.335 15.629 4.239 15.629 4.138 L 15.629 4.138 L 15.629 4.138 Z  M 17.2 14.288 C 17.609 13.872 18.003 13.455 18.412 13.055 C 18.548 12.919 18.565 12.801 18.517 12.612 C 17.96 10.387 17.42 8.158 16.871 5.928 C 16.722 5.332 16.568 4.73 16.419 4.134 C 16.402 4.138 16.384 4.138 16.367 4.142 C 16.367 4.256 16.367 4.371 16.367 4.485 C 16.367 7.478 16.371 10.475 16.362 13.468 C 16.362 13.793 16.38 14.03 16.766 14.082 C 16.902 14.1 17.025 14.201 17.2 14.288 L 17.2 14.288 L 17.2 14.288 Z  M 14.295 14.798 C 13.861 14.363 13.435 13.933 12.996 13.52 C 12.926 13.455 12.768 13.441 12.667 13.468 C 10.605 13.972 8.546 14.486 6.484 15.004 C 5.725 15.192 4.97 15.39 4.211 15.583 C 4.215 15.601 4.215 15.618 4.219 15.636 C 4.329 15.636 4.443 15.636 4.553 15.636 C 7.528 15.636 10.499 15.631 13.475 15.644 C 13.813 15.644 14.054 15.618 14.102 15.214 C 14.111 15.078 14.212 14.964 14.295 14.798 L 14.295 14.798 L 14.295 14.798 Z  M 17.718 14.811 C 17.802 14.999 17.903 15.162 17.942 15.342 C 17.995 15.587 18.118 15.636 18.35 15.636 C 21.409 15.627 24.468 15.631 27.526 15.631 C 27.61 15.631 27.698 15.623 27.781 15.618 C 27.746 15.565 27.711 15.557 27.671 15.548 C 24.876 14.846 22.08 14.139 19.285 13.441 C 19.206 13.424 19.083 13.437 19.03 13.485 C 18.587 13.924 18.153 14.372 17.718 14.811 L 17.718 14.811 L 17.718 14.811 Z  M 4.215 16.377 C 4.219 16.399 4.219 16.417 4.224 16.439 C 7.054 17.15 9.889 17.861 12.72 18.567 C 12.799 18.585 12.917 18.567 12.974 18.515 C 13.422 18.08 13.861 17.637 14.286 17.207 C 14.199 17.009 14.089 16.851 14.063 16.685 C 14.014 16.391 13.848 16.373 13.602 16.373 C 10.578 16.382 7.55 16.377 4.527 16.377 C 4.421 16.377 4.32 16.377 4.215 16.377 L 4.215 16.377 L 4.215 16.377 Z  M 17.727 17.207 C 18.148 17.637 18.583 18.084 19.03 18.519 C 19.087 18.572 19.223 18.576 19.316 18.558 C 19.68 18.479 20.04 18.383 20.4 18.291 C 22.392 17.79 24.384 17.29 26.377 16.79 C 26.846 16.671 27.316 16.549 27.79 16.43 C 27.737 16.382 27.698 16.377 27.658 16.377 C 24.538 16.377 21.418 16.377 18.293 16.377 C 18.254 16.377 18.201 16.364 18.17 16.382 C 18.109 16.417 18.03 16.461 18.003 16.518 C 17.903 16.733 17.824 16.961 17.727 17.207 L 17.727 17.207 L 17.727 17.207 Z  M 15.572 27.871 C 15.59 27.866 15.603 27.862 15.621 27.857 C 15.625 27.818 15.625 27.774 15.625 27.735 C 15.625 24.593 15.625 21.455 15.625 18.313 C 15.625 18.269 15.638 18.22 15.621 18.19 C 15.585 18.128 15.542 18.049 15.48 18.023 C 15.265 17.926 15.041 17.843 14.782 17.742 C 14.37 18.159 13.935 18.594 13.514 19.041 C 13.457 19.103 13.44 19.234 13.457 19.322 C 13.554 19.77 13.663 20.213 13.773 20.656 C 14.098 21.964 14.418 23.272 14.743 24.575 C 15.024 25.672 15.296 26.774 15.572 27.871 L 15.572 27.871 L 15.572 27.871 Z  M 16.367 27.871 C 16.38 27.871 16.393 27.875 16.41 27.875 C 16.437 27.8 16.468 27.726 16.485 27.651 C 17.17 24.878 17.854 22.1 18.534 19.326 C 18.552 19.247 18.552 19.12 18.504 19.067 C 18.065 18.611 17.613 18.168 17.187 17.742 C 16.99 17.83 16.836 17.926 16.669 17.962 C 16.41 18.014 16.367 18.155 16.367 18.396 C 16.375 21.455 16.371 24.509 16.371 27.568 C 16.367 27.669 16.367 27.77 16.367 27.871 L 16.367 27.871 L 16.367 27.871 Z  M 16.011 14.679 C 15.252 14.675 14.681 15.241 14.681 15.996 C 14.681 16.742 15.239 17.321 15.967 17.325 C 16.731 17.33 17.31 16.772 17.315 16.022 C 17.315 15.258 16.757 14.683 16.011 14.679 L 16.011 14.679 L 16.011 14.679 Z  M 10.416 10.334 C 10.398 10.352 10.385 10.365 10.368 10.383 C 10.846 11.181 11.32 11.985 11.803 12.783 C 11.829 12.823 11.904 12.853 11.956 12.853 C 12.478 12.84 12.689 12.66 12.812 12.143 C 12.821 12.112 12.816 12.077 12.83 12.05 C 12.926 11.875 12.838 11.791 12.693 11.708 C 12.299 11.48 11.912 11.238 11.517 11.002 C 11.153 10.778 10.785 10.558 10.416 10.334 L 10.416 10.334 L 10.416 10.334 Z  M 21.624 10.387 C 21.606 10.37 21.589 10.356 21.571 10.339 C 20.799 10.804 20.022 11.269 19.254 11.743 C 19.193 11.783 19.127 11.888 19.131 11.958 C 19.188 12.559 19.281 12.656 19.882 12.805 C 19.921 12.814 19.965 12.849 19.996 12.845 C 20.066 12.832 20.167 12.814 20.198 12.766 C 20.685 11.976 21.154 11.181 21.624 10.387 L 21.624 10.387 L 21.624 10.387 Z  M 12.869 20.147 C 12.812 19.616 12.689 19.208 12.075 19.173 C 11.899 19.164 11.816 19.177 11.732 19.322 C 11.337 19.998 10.934 20.669 10.534 21.341 C 10.482 21.433 10.429 21.525 10.376 21.617 C 10.394 21.626 10.407 21.639 10.425 21.648 C 11.237 21.156 12.048 20.652 12.869 20.147 L 12.869 20.147 L 12.869 20.147 Z  M 21.576 21.652 C 21.589 21.639 21.606 21.626 21.62 21.613 C 21.146 20.818 20.676 20.029 20.198 19.234 C 20.171 19.19 20.101 19.151 20.053 19.151 C 19.557 19.142 19.298 19.353 19.18 19.849 C 19.166 19.901 19.136 19.954 19.144 19.998 C 19.158 20.068 19.175 20.169 19.223 20.2 C 20.005 20.691 20.79 21.17 21.576 21.652 L 21.576 21.652 L 21.576 21.652 Z  M 18.921 11.059 C 19.044 10.988 19.14 10.94 19.237 10.879 C 20.307 10.234 21.374 9.584 22.449 8.943 C 22.572 8.869 22.743 8.812 22.879 8.829 C 23.151 8.869 23.217 9.154 23.041 9.457 C 22.392 10.554 21.738 11.647 21.084 12.744 C 21.027 12.84 20.979 12.937 20.904 13.068 C 21.729 13.275 22.519 13.477 23.313 13.674 C 25.89 14.324 28.461 14.973 31.037 15.618 C 31.252 15.671 31.384 15.785 31.388 15.991 C 31.393 16.215 31.248 16.329 31.024 16.386 C 27.702 17.216 24.384 18.054 21.067 18.892 C 21.027 18.901 20.988 18.918 20.913 18.94 C 20.974 19.05 21.023 19.151 21.075 19.243 C 21.72 20.331 22.374 21.415 23.011 22.504 C 23.085 22.626 23.138 22.802 23.116 22.938 C 23.072 23.201 22.796 23.267 22.515 23.1 C 21.76 22.64 21.005 22.174 20.255 21.709 C 19.825 21.442 19.39 21.178 18.925 20.893 C 18.736 21.635 18.556 22.341 18.381 23.048 C 17.709 25.747 17.042 28.441 16.38 31.14 C 16.327 31.355 16.222 31.496 16.016 31.5 C 15.792 31.504 15.678 31.364 15.621 31.136 C 14.796 27.8 13.966 24.465 13.137 21.13 C 13.119 21.06 13.093 20.994 13.062 20.902 C 12.237 21.411 11.43 21.907 10.627 22.403 C 10.28 22.618 9.933 22.828 9.591 23.043 C 9.393 23.166 9.187 23.307 8.972 23.096 C 8.757 22.885 8.884 22.679 9.007 22.473 C 9.644 21.407 10.28 20.336 10.916 19.269 C 10.973 19.173 11.026 19.072 11.1 18.936 C 10.451 18.769 9.837 18.611 9.213 18.453 C 6.458 17.76 3.697 17.066 0.941 16.377 C 0.726 16.325 0.603 16.193 0.612 15.987 C 0.621 15.781 0.757 15.671 0.972 15.618 C 4.303 14.784 7.634 13.946 10.964 13.104 C 10.995 13.095 11.021 13.082 11.087 13.055 C 11.035 12.954 10.986 12.853 10.929 12.761 C 10.284 11.673 9.63 10.589 8.994 9.501 C 8.919 9.378 8.862 9.202 8.884 9.066 C 8.928 8.794 9.209 8.733 9.507 8.913 C 10.587 9.562 11.667 10.216 12.742 10.865 C 12.847 10.927 12.952 10.988 13.084 11.063 C 13.33 10.084 13.567 9.145 13.799 8.206 C 13.865 7.939 13.931 7.673 13.997 7.406 C 14.538 5.23 15.08 3.055 15.612 0.873 C 15.669 0.645 15.774 0.5 15.998 0.5 C 16.222 0.504 16.323 0.654 16.375 0.882 C 17.2 4.23 18.034 7.574 18.864 10.923 C 18.877 10.953 18.894 10.984 18.921 11.059 L 18.921 11.059 L 18.921 11.059 Z "
              fill="rgb(56,78,109)"/>
        <path d=" M 27.913 18.378 C 27.667 19.142 27.496 19.871 27.21 20.546 C 25.543 24.461 22.633 26.901 18.53 27.91 C 18.267 27.976 18.082 27.897 18.021 27.647 C 17.955 27.384 18.118 27.248 18.368 27.19 C 20.755 26.638 22.787 25.466 24.437 23.636 C 25.753 22.174 26.64 20.481 27.066 18.55 C 27.088 18.449 27.088 18.313 27.153 18.256 C 27.263 18.155 27.434 18.027 27.553 18.049 C 27.684 18.076 27.785 18.256 27.913 18.378 Z "
              fill="rgb(56,78,109)"/>
        <path d=" M 13.668 27.963 C 13.325 27.879 13.027 27.827 12.742 27.735 C 8.204 26.3 5.365 23.245 4.193 18.611 C 4.11 18.286 4.206 18.089 4.439 18.032 C 4.658 17.979 4.834 18.128 4.908 18.453 C 5.259 19.993 5.878 21.407 6.804 22.679 C 8.489 24.996 10.71 26.515 13.505 27.155 C 13.659 27.19 13.821 27.274 13.927 27.384 C 13.988 27.445 13.984 27.629 13.94 27.726 C 13.883 27.831 13.747 27.897 13.668 27.963 Z "
              fill="rgb(56,78,109)"/>
        <path d=" M 4.11 13.665 C 4.237 13.178 4.32 12.753 4.461 12.353 C 5.975 7.952 9.003 5.213 13.483 4.094 C 13.729 4.033 13.909 4.116 13.975 4.349 C 14.05 4.612 13.896 4.761 13.646 4.818 C 12.36 5.112 11.144 5.586 10.034 6.302 C 7.379 8.004 5.65 10.378 4.935 13.481 C 4.913 13.573 4.917 13.696 4.856 13.749 C 4.742 13.85 4.584 13.986 4.461 13.968 C 4.325 13.937 4.215 13.762 4.11 13.665 Z "
              fill="rgb(56,78,109)"/>
        <path d=" M 18.315 4.028 C 18.798 4.156 19.219 4.239 19.618 4.379 C 23.994 5.902 26.71 8.952 27.82 13.463 C 27.886 13.727 27.772 13.942 27.548 13.972 C 27.281 14.008 27.158 13.85 27.101 13.604 C 26.715 11.884 25.995 10.321 24.906 8.939 C 23.252 6.846 21.141 5.463 18.543 4.858 C 18.442 4.836 18.311 4.84 18.249 4.774 C 18.144 4.665 18.012 4.502 18.03 4.379 C 18.047 4.248 18.219 4.138 18.315 4.028 Z "
              fill="rgb(56,78,109)"/>
        <path d=" M 16.423 4.138 L 18.19 11.263 L 18.921 11.082 L 16.368 0.785 L 16.366 0.785 C 16.323 0.612 16.173 0.484 15.994 0.484 C 15.818 0.484 15.669 0.609 15.624 0.778 L 15.616 0.776 L 13.074 11.029 L 13.821 11.215 L 15.57 4.162 C 15.584 4.162 15.598 4.161 15.612 4.159 L 15.612 11.344 L 16.383 11.344 L 16.383 4.152 C 16.397 4.148 16.41 4.143 16.423 4.138 Z "
              fill-rule="evenodd" fill="rgb(247, 117, 104)"/>
    </g>
</svg>