<?xml version="1.0" encoding="UTF-8" standalone="no"?><!-- Generator: Gravit.io -->
<svg xmlns="http://www.w3.org/2000/svg" xmlns:xlink="http://www.w3.org/1999/xlink" style="isolation:isolate"
     viewBox="0 0 32 32" width="32pt" height="32pt">
    <defs>
        <clipPath id="_clipPath_3PoawGEVeDrPvRNNcVgP8ANph98PQONy">
            <rect width="32" height="32"/>
        </clipPath>
    </defs>
    <g clip-path="url(#_clipPath_3PoawGEVeDrPvRNNcVgP8ANph98PQONy)">
        <g>
            <path d=" M 23.066 1.053 L 21.334 1.666 C 21.248 1.699 21.307 1.797 21.334 1.876 L 23.309 7.506 C 23.349 7.605 23.395 7.809 23.447 7.829 C 23.467 7.836 23.487 7.842 23.507 7.836 L 25.239 7.23 C 25.278 7.217 25.298 7.171 25.285 7.138 L 23.171 1.106 L 23.131 1.066 L 23.131 1.066 C 23.105 1.053 23.085 1.053 23.066 1.053 L 23.066 1.053 Z  M 21.031 0.658 L 22.717 0.065 C 23.006 -0.04 23.316 -0.014 23.573 0.112 L 23.573 0.112 C 23.829 0.237 24.04 0.461 24.145 0.75 L 26.259 6.782 C 26.463 7.362 26.154 8.007 25.568 8.211 L 23.836 8.817 C 23.368 8.981 22.855 8.81 22.572 8.428 L 21.762 8.85 C 21.768 9.027 21.735 9.212 21.67 9.39 L 28.906 9.39 C 29.196 9.39 29.433 9.627 29.433 9.916 L 29.433 27.854 C 29.433 28.143 29.196 28.38 28.906 28.38 L 20.287 28.38 L 21.426 30.362 C 21.67 30.771 21.334 31.232 20.899 31.166 L 19.608 30.962 L 18.924 31.804 L 18.924 31.804 C 18.693 32.088 18.245 32.061 18.061 31.739 L 16.988 29.862 C 16.336 29.987 15.664 29.987 15.012 29.862 L 13.932 31.739 C 13.748 32.061 13.3 32.088 13.07 31.804 L 13.07 31.804 L 12.385 30.962 L 11.094 31.166 C 10.666 31.232 10.324 30.771 10.568 30.362 L 11.707 28.38 L 3.094 28.38 C 2.804 28.38 2.567 28.143 2.567 27.854 L 2.567 9.923 C 2.567 9.633 2.804 9.396 3.094 9.396 L 10.238 9.396 C 10.107 9.265 9.975 9.133 9.83 8.988 L 9.277 8.593 C 8.981 8.863 8.553 8.962 8.157 8.823 L 6.426 8.218 C 5.846 8.013 5.53 7.368 5.734 6.789 L 7.848 0.757 C 7.947 0.467 8.164 0.243 8.421 0.118 L 8.421 0.118 C 8.678 -0.007 8.987 -0.033 9.277 0.072 L 10.969 0.665 C 11.397 0.796 11.7 1.178 11.753 1.606 L 15.552 2.449 C 16.198 2.225 17.725 1.988 19.036 1.784 C 19.477 1.718 19.892 1.652 20.247 1.593 C 20.306 1.192 20.55 0.875 20.932 0.704 C 20.965 0.678 20.998 0.665 21.031 0.658 L 21.031 0.658 Z  M 22.177 7.454 L 20.478 2.607 C 19.411 2.785 16.079 3.259 15.881 3.43 C 15.849 3.457 15.822 3.483 15.77 3.509 L 13.373 4.938 C 13.261 5.004 13.366 5.169 13.445 5.254 C 13.524 5.353 13.636 5.445 13.768 5.518 C 14.242 5.775 14.999 5.814 15.855 5.235 C 16.981 4.471 18.008 4.754 19.029 5.755 L 21.235 7.948 L 22.177 7.454 Z  M 11.516 2.62 L 9.758 7.645 L 10.535 8.218 C 12.194 9.844 12.945 10.693 14.716 12.465 C 15.295 13.044 15.849 12.405 15.789 12.307 L 14.288 10.871 C 14.077 10.667 14.071 10.338 14.275 10.127 C 14.479 9.916 14.808 9.91 15.019 10.114 L 16.764 11.787 L 17.133 12.116 C 17.403 12.359 18.094 11.773 17.89 11.563 L 16.151 9.897 C 15.941 9.693 15.934 9.363 16.138 9.153 C 16.336 8.942 16.672 8.935 16.882 9.139 L 18.627 10.812 C 18.891 11.062 19.516 10.404 19.279 10.173 C 19.273 10.167 19.266 10.16 19.259 10.153 L 17.521 8.494 C 17.31 8.29 17.304 7.961 17.508 7.75 C 17.712 7.539 18.041 7.533 18.252 7.737 L 19.984 9.396 C 20.102 9.502 20.155 9.508 20.326 9.436 C 20.55 9.337 20.774 8.975 20.715 8.909 L 18.292 6.499 C 17.883 6.097 17.547 5.9 17.251 5.86 C 16.988 5.821 16.724 5.919 16.448 6.104 C 15.203 6.947 14.038 6.861 13.274 6.44 C 12.227 5.867 11.865 4.616 12.846 4.036 L 14.216 3.22 L 11.516 2.62 Z  M 10.666 1.666 L 8.934 1.053 C 8.915 1.047 8.895 1.047 8.882 1.06 L 8.882 1.06 L 8.842 1.099 L 6.729 7.131 C 6.715 7.171 6.735 7.21 6.775 7.223 L 8.506 7.829 C 8.546 7.842 8.585 7.822 8.599 7.783 L 10.712 1.751 C 10.719 1.718 10.706 1.679 10.666 1.666 L 10.666 1.666 Z  M 20.596 10.45 C 20.517 10.476 20.438 10.502 20.359 10.516 C 20.32 10.733 20.227 10.937 20.109 11.121 L 24.679 11.121 C 24.969 11.121 25.206 11.359 25.206 11.648 C 25.206 12.643 26.009 13.446 27.003 13.446 C 27.293 13.446 27.53 13.683 27.53 13.973 L 27.53 23.81 C 27.53 24.1 27.293 24.337 27.003 24.337 C 26.009 24.337 25.206 25.141 25.206 26.135 C 25.206 26.425 24.969 26.662 24.679 26.662 L 20.846 26.662 C 20.754 26.892 20.642 27.116 20.524 27.333 L 28.38 27.333 L 28.38 10.45 L 20.596 10.45 Z  M 18.851 12.182 C 18.482 12.985 17.403 13.538 16.606 13.038 C 16.369 13.387 15.98 13.637 15.552 13.722 C 15.045 13.828 14.472 13.709 13.972 13.209 C 13.583 12.82 13.248 12.485 12.951 12.175 L 7.802 12.175 C 7.585 13.327 6.676 14.236 5.53 14.453 L 5.53 23.336 C 6.682 23.554 7.591 24.462 7.802 25.608 L 10.864 25.608 C 10.337 22.434 12.78 19.543 16 19.543 C 19.22 19.543 21.663 22.434 21.136 25.608 L 24.198 25.608 C 24.415 24.456 25.324 23.554 26.47 23.336 L 26.47 14.453 C 25.318 14.236 24.409 13.327 24.198 12.175 L 18.851 12.175 L 18.851 12.182 Z  M 11.937 11.128 C 11.726 10.911 11.516 10.687 11.285 10.456 L 3.62 10.456 L 3.62 27.34 L 11.483 27.34 C 11.358 27.123 11.252 26.899 11.16 26.668 L 7.328 26.668 C 7.038 26.668 6.801 26.431 6.801 26.141 C 6.801 25.147 5.998 24.344 5.003 24.344 C 4.714 24.344 4.477 24.107 4.477 23.817 L 4.477 13.973 C 4.477 13.683 4.714 13.446 5.003 13.446 C 5.998 13.446 6.801 12.643 6.801 11.648 C 6.801 11.359 7.038 11.121 7.328 11.121 L 11.937 11.121 L 11.937 11.128 Z  M 16 21.631 C 17.719 21.631 19.115 23.027 19.115 24.745 C 19.115 26.464 17.719 27.86 16 27.86 C 14.281 27.86 12.885 26.464 12.885 24.745 C 12.885 23.027 14.281 21.631 16 21.631 L 16 21.631 Z  M 17.455 23.29 C 16.652 22.487 15.342 22.487 14.538 23.29 C 13.735 24.094 13.735 25.404 14.538 26.207 C 15.342 27.011 16.652 27.011 17.455 26.207 C 18.265 25.404 18.265 24.094 17.455 23.29 L 17.455 23.29 Z  M 19.299 28.775 C 18.917 29.091 18.482 29.348 18.022 29.546 L 18.601 30.553 L 18.996 30.073 C 19.121 29.915 19.319 29.855 19.497 29.888 L 19.984 29.967 L 19.299 28.775 Z  M 13.985 29.552 C 13.518 29.355 13.09 29.098 12.708 28.782 L 12.023 29.967 L 12.51 29.888 C 12.688 29.855 12.885 29.921 13.01 30.073 L 13.406 30.553 L 13.985 29.552 Z  M 18.937 21.815 C 17.317 20.195 14.69 20.195 13.063 21.815 C 12.312 22.566 11.845 23.606 11.845 24.752 C 11.845 27.044 13.695 28.907 16 28.907 C 18.305 28.907 20.155 27.044 20.155 24.752 C 20.155 23.6 19.688 22.566 18.937 21.815 L 18.937 21.815 Z  M 12.062 16.482 C 11.773 16.482 11.535 16.244 11.535 15.955 C 11.535 15.665 11.773 15.428 12.062 15.428 L 17.337 15.428 C 17.626 15.428 17.864 15.665 17.864 15.955 C 17.864 16.244 17.626 16.482 17.337 16.482 L 12.062 16.482 Z  M 12.062 18.786 C 11.773 18.786 11.535 18.549 11.535 18.259 C 11.535 17.97 11.773 17.733 12.062 17.733 L 24.303 17.733 C 24.593 17.733 24.83 17.97 24.83 18.259 C 24.83 18.549 24.593 18.786 24.303 18.786 L 12.062 18.786 Z "
                  fill="rgb(0,0,0)"/>
            <path d=" M 10 15.134 C 10.114 15.134 10.207 15.041 10.207 14.927 C 10.207 14.813 10.114 14.721 10 14.721 L 7.394 14.721 C 7.28 14.721 7.188 14.813 7.188 14.927 C 7.188 15.041 7.28 15.134 7.394 15.134 L 8.138 15.134 C 8.415 15.134 8.647 15.313 8.733 15.56 L 7.394 15.56 C 7.28 15.56 7.188 15.652 7.188 15.766 C 7.188 15.88 7.28 15.973 7.394 15.973 L 8.733 15.973 C 8.648 16.22 8.415 16.399 8.138 16.399 L 7.394 16.399 C 7.28 16.399 7.188 16.491 7.188 16.605 C 7.188 16.719 7.28 16.812 7.394 16.812 L 8.056 16.812 L 9.858 18.532 C 9.899 18.57 9.95 18.589 10.001 18.589 C 10.055 18.589 10.11 18.567 10.15 18.525 C 10.229 18.442 10.226 18.312 10.143 18.233 L 8.558 16.721 C 8.865 16.586 9.094 16.308 9.162 15.972 L 10 15.972 C 10.114 15.972 10.207 15.88 10.207 15.766 C 10.207 15.652 10.114 15.56 10 15.56 L 9.162 15.56 C 9.13 15.401 9.059 15.257 8.964 15.133 L 10 15.134 Z "
                  fill="rgb(0,0,0)"/>
        </g>
    </g>
</svg>