<?xml version="1.0" encoding="UTF-8" standalone="no"?><!-- Generator: Gravit.io -->
<svg xmlns="http://www.w3.org/2000/svg" style="isolation:isolate"
     viewBox="0 0 32 32" width="32pt" height="32pt">
    <defs>
        <clipPath id="_clipPath_TfCX1Z8hoBRRX6kucPXJQSicble47mO1">
            <rect width="32" height="32"/>
        </clipPath>
    </defs>
    <g clip-path="url(#_clipPath_TfCX1Z8hoBRRX6kucPXJQSicble47mO1)">
        <g>
            <path d=" M 16.361 29.48 C 16.335 29.48 16.311 29.48 16.284 29.48 C 16.311 29.48 16.338 29.48 16.361 29.48 Z "
                  fill="rgb(56,78,109)"/>
            <path d=" M 16.446 29.48 C 16.417 29.48 16.388 29.48 16.361 29.48 C 16.391 29.48 16.42 29.48 16.446 29.48 Z "
                  fill="rgb(56,78,109)"/>
            <path d=" M 16.284 29.48 C 16.258 29.48 16.231 29.48 16.205 29.48 C 16.231 29.48 16.258 29.48 16.284 29.48 Z "
                  fill="rgb(56,78,109)"/>
            <path d=" M 16.025 29.477 C 16.033 29.477 16.043 29.477 16.051 29.477 C 16.046 29.477 16.04 29.477 16.033 29.477 L 16.025 29.477 Z "
                  fill="rgb(56,78,109)"/>
            <path d=" M 16.123 29.48 C 16.099 29.48 16.075 29.48 16.051 29.477 C 16.075 29.48 16.099 29.48 16.123 29.48 Z "
                  fill="rgb(56,78,109)"/>
            <path d=" M 16.205 29.48 C 16.178 29.48 16.149 29.48 16.123 29.48 C 16.152 29.48 16.178 29.48 16.205 29.48 Z "
                  fill="rgb(56,78,109)"/>
            <path d=" M 16.515 29.477 C 16.491 29.477 16.47 29.477 16.446 29.477 C 16.47 29.48 16.494 29.48 16.515 29.477 Z "
                  fill="rgb(56,78,109)"/>
            <path d=" M 16.544 29.477 L 16.534 29.477 C 16.528 29.477 16.521 29.477 16.515 29.477 C 16.526 29.477 16.536 29.477 16.544 29.477 Z "
                  fill="rgb(56,78,109)"/>
            <path d=" M 9.274 14.998 L 0.431 15.099 C 0.394 15.762 0.4 16.433 0.447 17.109 L 9.28 17.008 C 9.176 16.324 9.176 15.648 9.274 14.998 Z "
                  fill="rgb(56,78,109)"/>
            <path d=" M 9.884 13.046 L 1.37 10.611 C 1.137 11.237 0.946 11.881 0.795 12.536 L 9.28 14.963 C 9.383 14.29 9.59 13.645 9.884 13.046 Z "
                  fill="rgb(56,78,109)"/>
            <path d=" M 11.038 11.38 L 11.03 11.369 L 3.574 6.603 C 3.169 7.136 2.797 7.696 2.463 8.277 L 9.892 13.024 C 10.189 12.425 10.577 11.868 11.038 11.38 Z "
                  fill="rgb(56,78,109)"/>
            <path d=" M 11.041 11.377 C 11.492 10.9 12.014 10.489 12.595 10.157 L 12.55 10.056 L 6.826 3.423 C 6.28 3.818 5.763 4.245 5.277 4.704 L 11.028 11.369 L 11.041 11.377 Z "
                  fill="rgb(56,78,109)"/>
            <path d=" M 11.03 11.369 L 11.038 11.38 L 11.041 11.377 L 11.03 11.369 Z " fill="rgb(56,78,109)"/>
            <path d=" M 12.624 10.141 C 13.173 9.834 13.773 9.598 14.415 9.452 L 14.385 9.234 L 10.842 1.338 C 10.203 1.558 9.582 1.818 8.988 2.115 L 12.55 10.056 L 12.624 10.141 Z "
                  fill="rgb(56,78,109)"/>
            <path d=" M 12.553 10.056 L 12.598 10.157 C 12.606 10.152 12.616 10.147 12.624 10.141 L 12.553 10.056 Z "
                  fill="rgb(56,78,109)"/>
            <path d=" M 14.478 9.438 C 14.534 9.425 14.59 9.412 14.645 9.401 C 15.213 9.293 15.778 9.258 16.33 9.293 L 16.38 8.972 L 15.258 0.5 C 14.595 0.529 13.929 0.601 13.261 0.717 L 14.388 9.234 L 14.478 9.438 Z "
                  fill="rgb(56,78,109)"/>
            <path d=" M 14.385 9.234 L 14.415 9.452 C 14.436 9.446 14.457 9.444 14.478 9.438 L 14.385 9.234 Z "
                  fill="rgb(56,78,109)"/>
            <path d=" M 16.422 9.3 C 17.03 9.346 17.619 9.473 18.178 9.674 L 18.364 9.287 L 19.695 0.954 C 19.048 0.792 18.388 0.667 17.719 0.59 L 16.38 8.972 L 16.422 9.3 Z "
                  fill="rgb(56,78,109)"/>
            <path d=" M 16.377 8.972 L 16.327 9.293 C 16.359 9.295 16.391 9.298 16.422 9.3 L 16.377 8.972 Z "
                  fill="rgb(56,78,109)"/>
            <path d=" M 18.292 9.717 C 18.839 9.924 19.353 10.202 19.825 10.542 L 20.173 10.16 L 23.793 2.64 C 23.218 2.301 22.618 1.996 22 1.731 L 18.364 9.287 L 18.292 9.717 Z "
                  fill="rgb(56,78,109)"/>
            <path d=" M 18.361 9.287 L 18.176 9.674 C 18.215 9.688 18.255 9.704 18.292 9.717 L 18.361 9.287 Z "
                  fill="rgb(56,78,109)"/>
            <path d=" M 19.947 10.629 C 20.398 10.969 20.807 11.367 21.162 11.812 L 21.658 11.513 L 27.231 5.394 C 26.772 4.903 26.281 4.444 25.764 4.02 L 20.173 10.16 L 19.947 10.629 Z "
                  fill="rgb(56,78,109)"/>
            <path d=" M 20.173 10.16 L 19.825 10.542 C 19.865 10.571 19.908 10.6 19.947 10.629 L 20.173 10.16 Z "
                  fill="rgb(56,78,109)"/>
            <path d=" M 21.266 11.942 C 21.597 12.383 21.881 12.865 22.098 13.385 L 22.695 13.231 L 29.75 8.985 C 29.445 8.383 29.103 7.805 28.727 7.256 L 21.658 11.513 L 21.266 11.942 Z "
                  fill="rgb(56,78,109)"/>
            <path d=" M 21.658 11.513 L 21.162 11.812 C 21.197 11.855 21.231 11.9 21.266 11.945 L 21.658 11.513 Z "
                  fill="rgb(56,78,109)"/>
            <path d=" M 22.165 13.552 C 22.311 13.926 22.425 14.316 22.504 14.722 C 22.533 14.868 22.555 15.011 22.571 15.154 L 23.196 15.178 L 31.151 13.13 C 31.146 13.107 31.143 13.083 31.138 13.056 C 31.013 12.414 30.851 11.788 30.655 11.181 L 22.695 13.229 L 22.165 13.552 Z "
                  fill="rgb(56,78,109)"/>
            <path d=" M 22.695 13.234 L 22.098 13.388 C 22.122 13.443 22.144 13.499 22.165 13.555 L 22.695 13.234 Z "
                  fill="rgb(56,78,109)"/>
            <path d=" M 16.197 20.074 L 31.467 20.411 C 31.578 19.751 31.618 19.08 31.578 18.403 L 17.364 18.088 C 17.364 18.088 16.38 19.48 16.197 20.074 Z "
                  fill="rgb(56,78,109)"/>
            <path d=" M 23.196 15.181 L 22.571 15.157 C 22.578 15.218 22.586 15.276 22.592 15.337 L 23.196 15.181 Z "
                  fill="rgb(56,78,109)"/>
            <path d=" M 3.513 20.767 C 4.317 20.589 4.911 20.318 5.434 20.08 C 6.001 19.822 6.489 19.6 7.232 19.483 C 8.24 19.326 9.301 19.435 10.394 19.806 C 9.922 19.125 9.571 18.348 9.375 17.496 C 8.545 17.372 7.723 17.372 6.922 17.496 C 5.909 17.655 5.214 17.971 4.601 18.249 C 4.126 18.467 3.678 18.671 3.078 18.804 C 2.328 18.971 1.524 18.982 0.675 18.838 C 0.681 18.867 0.686 18.894 0.691 18.923 C 0.824 19.61 1.002 20.279 1.217 20.926 C 1.421 20.942 1.625 20.95 1.824 20.95 C 2.399 20.95 2.964 20.889 3.513 20.767 Z "
                  fill="rgb(56,78,109)"/>
            <path d=" M 7.229 24.607 C 8.675 24.382 10.049 24.841 10.786 25.087 C 10.85 25.108 10.908 25.127 10.961 25.146 C 11.327 25.265 11.529 25.368 11.765 25.49 C 12.041 25.631 12.351 25.79 12.876 25.96 C 13.826 26.27 14.823 26.437 15.844 26.464 L 15.895 24.456 C 15.913 24.456 15.932 24.456 15.95 24.456 C 15.102 24.44 14.279 24.302 13.497 24.048 C 13.12 23.926 12.916 23.819 12.675 23.697 C 12.404 23.559 12.096 23.4 11.579 23.233 C 11.529 23.217 11.476 23.199 11.415 23.18 C 10.579 22.902 8.839 22.321 6.911 22.621 C 5.898 22.78 5.203 23.095 4.59 23.374 C 4.116 23.591 3.667 23.796 3.068 23.928 C 2.922 23.96 2.776 23.987 2.628 24.005 C 3.007 24.634 3.429 25.23 3.887 25.793 C 4.503 25.62 4.988 25.4 5.426 25.204 C 5.999 24.944 6.489 24.721 7.229 24.607 Z "
                  fill="rgb(56,78,109)"/>
            <path d=" M 16.136 26.469 C 16.231 26.469 16.327 26.469 16.42 26.466 L 16.42 26.464 C 16.327 26.466 16.231 26.469 16.136 26.469 C 16.136 26.469 16.136 26.469 16.136 26.469 Z "
                  fill="rgb(56,78,109)"/>
            <path d=" M 16.319 24.456 C 16.255 24.456 16.192 24.456 16.131 24.456 C 16.192 24.459 16.255 24.459 16.319 24.456 Z "
                  fill="rgb(56,78,109)"/>
            <path d=" M 27.671 23.374 C 27.058 23.095 26.363 22.78 25.35 22.621 C 23.422 22.318 21.682 22.902 20.847 23.18 C 20.788 23.199 20.732 23.217 20.682 23.233 C 20.168 23.4 19.86 23.559 19.587 23.697 C 19.348 23.819 19.141 23.926 18.764 24.048 C 17.982 24.302 17.162 24.44 16.314 24.456 C 16.332 24.456 16.348 24.456 16.367 24.456 L 16.417 26.464 C 17.438 26.437 18.436 26.268 19.385 25.96 C 19.91 25.787 20.223 25.628 20.496 25.49 C 20.732 25.371 20.937 25.265 21.3 25.146 C 21.353 25.127 21.411 25.108 21.475 25.087 C 22.212 24.841 23.586 24.382 25.032 24.607 C 25.775 24.724 26.263 24.947 26.83 25.204 C 27.178 25.363 27.557 25.533 28.008 25.684 C 28.451 25.13 28.857 24.546 29.22 23.936 C 29.209 23.933 29.199 23.931 29.185 23.931 C 28.597 23.796 28.146 23.591 27.671 23.374 Z "
                  fill="rgb(56,78,109)"/>
            <path d=" M 15.849 26.466 C 15.945 26.469 16.04 26.469 16.133 26.469 C 16.133 26.469 16.133 26.469 16.136 26.469 C 16.04 26.469 15.945 26.466 15.849 26.466 L 15.849 26.466 Z "
                  fill="rgb(56,78,109)"/>
            <path d=" M 16.128 24.459 C 16.07 24.459 16.014 24.459 15.956 24.459 C 16.014 24.459 16.072 24.459 16.128 24.459 Z "
                  fill="rgb(56,78,109)"/>
            <path d=" M 16.427 24.456 C 16.334 24.456 16.241 24.456 16.152 24.456 C 16.067 24.456 15.985 24.456 15.9 24.456 C 15.873 24.456 15.846 24.456 15.818 24.456 L 15.745 26.464 C 15.884 26.466 16.024 26.469 16.164 26.469 C 16.303 26.469 16.443 26.466 16.582 26.464 L 16.509 24.456 C 16.478 24.456 16.45 24.456 16.427 24.456 Z "
                  fill="rgb(56,78,109)"/>
            <path d=" M 16.051 29.477 C 16.075 29.477 16.099 29.477 16.123 29.48 C 16.149 29.48 16.178 29.48 16.205 29.48 C 16.231 29.48 16.258 29.48 16.284 29.48 C 16.311 29.48 16.335 29.48 16.361 29.48 C 16.391 29.48 16.417 29.48 16.446 29.48 C 16.47 29.48 16.494 29.48 16.515 29.48 C 16.521 29.48 16.528 29.48 16.534 29.48 L 16.033 29.48 C 16.04 29.477 16.046 29.477 16.051 29.477 Z "
                  fill="rgb(56,78,109)"/>
            <path d=" M 18.847 31.217 C 21.589 30.689 24.024 29.466 26.003 27.769 C 25.801 27.716 25.584 27.668 25.345 27.631 C 23.528 27.347 21.868 27.97 21.144 28.206 C 20.26 28.495 20.125 28.729 19.229 29.021 C 18.194 29.358 17.258 29.461 16.534 29.48 L 16.544 29.48 C 16.536 29.48 16.526 29.48 16.515 29.48 C 16.491 29.48 16.47 29.48 16.446 29.48 C 16.417 29.48 16.391 29.48 16.361 29.48 C 16.335 29.48 16.311 29.48 16.284 29.48 C 16.258 29.48 16.231 29.48 16.205 29.48 C 16.176 29.48 16.149 29.48 16.123 29.48 C 16.099 29.48 16.075 29.48 16.051 29.477 C 16.043 29.477 16.033 29.477 16.025 29.477 L 16.035 29.477 C 15.311 29.458 14.375 29.358 13.343 29.018 C 12.447 28.726 12.311 28.493 11.428 28.204 C 10.704 27.968 9.044 27.344 7.227 27.628 C 6.763 27.7 6.378 27.811 6.031 27.939 C 9.473 30.784 14.115 32.129 18.847 31.217 Z "
                  fill="rgb(56,78,109)"/>
            <path d=" M 22.205 13.388 C 22.395 13.939 22.515 14.512 22.56 15.091 L 23.074 15.112 L 31.159 13.043 C 31.047 12.383 30.896 11.727 30.7 11.086 L 22.576 13.165 L 22.205 13.388 Z "
                  fill="rgb(56,78,109)"/>
            <path d=" M 22.571 15.242 C 22.602 15.807 22.56 16.374 22.449 16.934 L 22.995 17.122 L 31.265 17.448 C 31.344 16.78 31.379 16.112 31.374 15.441 L 23.074 15.112 L 22.571 15.242 Z "
                  fill="rgb(56,78,109)"/>
            <path d=" M 22.449 16.931 L 22.449 17.136 L 22.995 17.12 L 23.414 16.053 L 22.449 16.931 Z "
                  fill="rgb(56,78,109)"/>
        </g>
    </g>
</svg>