<?xml version="1.0" encoding="UTF-8" standalone="no"?><!-- Generator: Gravit.io -->
<svg xmlns="http://www.w3.org/2000/svg" style="isolation:isolate"
     viewBox="0 0 32 32" width="32pt" height="32pt">
    <defs>
        <clipPath id="_clipPath_v0QVzXiLJuPgFzUr8oyLypVbcQFNZtyN">
            <rect width="32" height="32"/>
        </clipPath>
    </defs>
    <g clip-path="url(#_clipPath_v0QVzXiLJuPgFzUr8oyLypVbcQFNZtyN)">
        <g>
            <path d=" M 23.724 16.141 C 25.149 14.714 25.719 12.643 25.222 10.688 C 24.726 8.733 23.236 7.184 21.302 6.61 C 21.967 5.401 22.036 3.953 21.487 2.685 C 20.939 1.418 19.836 0.477 18.5 0.133 C 17.162 -0.211 15.742 0.083 14.65 0.929 C 13.56 1.775 12.921 3.078 12.921 4.458 C 12.921 4.561 12.926 4.662 12.933 4.763 L 12.933 4.765 C 10.978 4.154 8.846 4.608 7.309 5.963 C 5.773 7.317 5.053 9.375 5.412 11.392 C 5.771 13.409 7.157 15.092 9.067 15.832 C 10.977 16.572 13.134 16.263 14.759 15.015 C 15.662 16.532 17.214 17.548 18.966 17.769 C 20.717 17.988 22.473 17.388 23.722 16.14 L 23.724 16.141 Z  M 14.871 1.943 C 16.203 0.607 18.343 0.543 19.753 1.794 C 21.163 3.046 21.352 5.179 20.187 6.659 C 20.156 6.697 20.124 6.736 20.092 6.774 C 20.077 6.791 20.065 6.806 20.051 6.823 C 20.004 6.876 19.956 6.927 19.904 6.977 C 19.868 7.013 19.827 7.05 19.789 7.086 L 19.758 7.114 C 19.725 7.144 19.691 7.173 19.658 7.2 L 19.636 7.218 C 19.594 7.253 19.55 7.288 19.505 7.32 L 19.499 7.325 C 19.455 7.357 19.41 7.389 19.366 7.418 L 19.358 7.423 L 19.358 7.425 C 18.774 7.813 18.088 8.02 17.388 8.019 C 17.154 8.019 16.922 7.997 16.694 7.952 L 16.662 7.946 C 16.628 7.939 16.595 7.931 16.562 7.922 L 16.476 7.902 L 16.455 7.896 C 16.378 7.875 16.301 7.851 16.226 7.825 C 16.038 7.761 15.857 7.681 15.684 7.586 C 15.67 7.579 15.657 7.571 15.643 7.563 C 15.603 7.541 15.565 7.518 15.525 7.494 C 15.505 7.481 15.484 7.468 15.464 7.454 L 15.371 7.393 C 15.348 7.377 15.325 7.361 15.303 7.345 C 15.275 7.325 15.246 7.303 15.217 7.281 C 15.196 7.264 15.174 7.248 15.152 7.23 C 15.121 7.205 15.09 7.178 15.061 7.153 C 15.043 7.137 15.025 7.123 15.008 7.107 C 14.961 7.064 14.915 7.021 14.87 6.976 C 14.834 6.94 14.797 6.903 14.763 6.864 C 14.752 6.853 14.741 6.841 14.731 6.828 C 14.707 6.8 14.681 6.771 14.656 6.741 C 14.636 6.719 14.62 6.696 14.6 6.673 C 14.581 6.65 14.566 6.629 14.549 6.608 C 14.532 6.586 14.513 6.559 14.495 6.535 L 14.476 6.506 C 14.231 6.159 14.05 5.771 13.942 5.36 L 13.939 5.348 C 13.864 5.058 13.827 4.758 13.827 4.458 C 13.826 3.514 14.201 2.608 14.871 1.943 L 14.871 1.943 Z  M 14.353 14.182 C 13.445 14.932 12.301 15.336 11.122 15.318 C 9.944 15.302 8.812 14.866 7.927 14.09 C 7.04 13.314 6.461 12.246 6.29 11.082 C 6.121 9.916 6.371 8.728 6.997 7.73 C 7.623 6.733 8.583 5.991 9.706 5.637 C 10.829 5.284 12.043 5.342 13.127 5.801 C 13.26 6.225 13.456 6.628 13.71 6.994 C 13.717 7.004 13.724 7.013 13.731 7.023 C 13.767 7.073 13.801 7.122 13.84 7.169 C 13.86 7.195 13.881 7.222 13.901 7.248 C 13.918 7.268 13.933 7.287 13.95 7.307 C 13.986 7.352 14.026 7.395 14.064 7.439 L 14.098 7.475 C 14.141 7.523 14.186 7.57 14.232 7.616 C 14.278 7.662 14.33 7.711 14.379 7.756 L 14.42 7.792 C 14.458 7.826 14.497 7.86 14.536 7.893 L 14.577 7.926 C 14.626 7.966 14.676 8.006 14.729 8.044 L 14.736 8.049 C 14.79 8.089 14.845 8.128 14.899 8.165 L 14.949 8.197 C 14.985 8.221 15.022 8.244 15.061 8.267 L 15.134 8.311 C 15.162 8.328 15.19 8.343 15.219 8.36 C 15.247 8.375 15.278 8.393 15.307 8.409 C 15.297 8.42 15.288 8.433 15.278 8.444 C 15.255 8.473 15.232 8.501 15.21 8.528 C 15.188 8.556 15.157 8.595 15.131 8.629 C 15.075 8.704 15.02 8.779 14.967 8.856 L 14.953 8.875 L 14.953 8.879 C 14.389 9.709 14.054 10.672 13.981 11.673 C 13.98 11.701 13.977 11.729 13.974 11.759 C 13.972 11.799 13.971 11.84 13.968 11.88 C 13.966 11.939 13.964 11.998 13.964 12.057 L 13.964 12.105 C 13.964 12.19 13.967 12.276 13.971 12.361 L 13.971 12.386 C 14 13.002 14.128 13.609 14.353 14.182 L 14.353 14.182 Z  M 14.869 12.146 L 14.869 12.136 C 14.869 12.075 14.869 12.012 14.871 11.95 C 14.871 11.914 14.875 11.88 14.876 11.844 C 14.876 11.817 14.88 11.788 14.881 11.762 C 14.885 11.715 14.888 11.669 14.893 11.623 L 14.895 11.596 L 14.895 11.594 C 14.978 10.816 15.247 10.071 15.68 9.421 L 15.693 9.401 C 15.723 9.358 15.754 9.314 15.784 9.271 L 15.82 9.221 C 15.847 9.185 15.874 9.147 15.902 9.111 C 15.943 9.06 15.984 9.01 16.028 8.96 C 16.043 8.941 16.06 8.924 16.077 8.905 C 16.11 8.869 16.145 8.829 16.179 8.792 L 16.204 8.766 L 16.214 8.769 C 16.255 8.781 16.296 8.791 16.337 8.801 C 16.392 8.815 16.446 8.827 16.504 8.837 L 16.518 8.84 L 16.518 8.841 C 17.748 9.09 19.026 8.805 20.033 8.057 L 20.051 8.043 C 20.158 7.962 20.263 7.876 20.365 7.785 L 20.401 7.753 C 20.449 7.708 20.498 7.662 20.547 7.615 C 20.596 7.567 20.642 7.517 20.687 7.468 L 20.72 7.432 C 20.729 7.422 20.739 7.412 20.748 7.402 L 20.748 7.403 C 21.932 7.671 22.97 8.375 23.656 9.374 C 24.342 10.375 24.627 11.597 24.452 12.797 C 24.276 13.997 23.654 15.086 22.71 15.848 C 21.766 16.61 20.569 16.987 19.359 16.905 C 18.15 16.823 17.014 16.287 16.182 15.404 C 15.35 14.523 14.881 13.359 14.87 12.146 L 14.869 12.146 Z  M 19.711 15.699 C 19.461 15.699 19.258 15.497 19.258 15.247 L 19.258 14.808 C 18.479 14.681 17.855 14.1 17.67 13.334 C 17.613 13.089 17.766 12.845 18.01 12.79 C 18.255 12.734 18.497 12.886 18.554 13.13 C 18.708 13.801 19.414 14.018 20.047 13.936 C 20.349 13.92 20.621 13.745 20.76 13.474 C 20.83 13.288 20.787 13.078 20.648 12.935 C 20.417 12.682 20.09 12.541 19.748 12.544 C 19.486 12.512 19.227 12.453 18.977 12.368 L 18.963 12.363 L 18.964 12.362 C 18.337 12.162 17.905 11.586 17.887 10.928 C 17.916 10.266 18.352 9.69 18.981 9.482 C 19.072 9.449 19.164 9.421 19.258 9.399 L 19.258 8.947 C 19.258 8.697 19.461 8.493 19.711 8.493 C 19.961 8.493 20.165 8.697 20.165 8.947 L 20.165 9.385 C 20.856 9.549 21.415 10.056 21.646 10.726 C 21.691 10.839 21.69 10.966 21.641 11.078 C 21.592 11.191 21.5 11.278 21.386 11.32 C 21.272 11.364 21.146 11.36 21.034 11.309 C 20.924 11.257 20.838 11.162 20.798 11.048 C 20.709 10.743 20.493 10.492 20.207 10.354 C 19.921 10.217 19.59 10.208 19.296 10.329 C 19.021 10.412 18.822 10.652 18.794 10.938 C 18.79 11.178 18.968 11.383 19.296 11.519 C 19.487 11.581 19.684 11.624 19.883 11.647 C 20.446 11.673 20.974 11.928 21.345 12.354 C 21.692 12.753 21.793 13.31 21.604 13.804 C 21.35 14.386 20.797 14.782 20.165 14.834 L 20.165 15.245 C 20.165 15.495 19.962 15.699 19.712 15.699 L 19.711 15.699 Z  M 17.483 5.743 C 17.483 6.301 17.819 6.804 18.333 7.017 C 18.849 7.23 19.441 7.112 19.835 6.718 C 20.23 6.324 20.347 5.732 20.134 5.216 C 19.921 4.702 19.418 4.366 18.862 4.366 C 18.101 4.367 17.484 4.983 17.483 5.743 L 17.483 5.743 Z  M 19.332 5.743 C 19.332 5.934 19.218 6.106 19.042 6.179 C 18.865 6.252 18.663 6.213 18.528 6.078 C 18.393 5.943 18.352 5.741 18.425 5.564 C 18.499 5.388 18.67 5.272 18.862 5.272 C 19.121 5.274 19.331 5.484 19.332 5.743 L 19.332 5.743 Z  M 15.877 4.57 C 16.435 4.57 16.938 4.233 17.151 3.719 C 17.364 3.203 17.246 2.611 16.85 2.217 C 16.457 1.823 15.864 1.705 15.348 1.92 C 14.834 2.132 14.498 2.635 14.499 3.193 C 14.501 3.954 15.118 4.57 15.877 4.57 L 15.877 4.57 Z  M 15.877 2.72 L 15.877 2.721 C 16.068 2.721 16.24 2.835 16.313 3.011 C 16.386 3.188 16.345 3.391 16.21 3.525 C 16.076 3.66 15.873 3.701 15.697 3.628 C 15.522 3.555 15.406 3.384 15.406 3.193 C 15.405 3.068 15.455 2.948 15.543 2.86 C 15.632 2.77 15.752 2.721 15.877 2.721 L 15.877 2.72 Z  M 15.929 6.029 L 18.149 2.185 C 18.208 2.079 18.306 1.999 18.424 1.966 C 18.542 1.932 18.668 1.948 18.774 2.009 C 18.88 2.071 18.957 2.172 18.987 2.29 C 19.017 2.409 18.998 2.535 18.935 2.639 L 16.714 6.483 C 16.59 6.7 16.312 6.774 16.095 6.65 C 15.878 6.524 15.804 6.247 15.929 6.031 L 15.929 6.029 Z  M 13.136 28.915 C 13.165 29.164 12.987 29.39 12.739 29.419 L 11.774 29.532 L 11.772 29.532 C 11.756 29.534 11.738 29.536 11.72 29.536 C 11.48 29.534 11.282 29.347 11.268 29.107 C 11.255 28.869 11.43 28.66 11.667 28.631 L 12.633 28.519 C 12.752 28.504 12.873 28.538 12.966 28.612 C 13.061 28.687 13.122 28.796 13.136 28.915 L 13.136 28.915 Z  M 14.504 27.959 C 14.427 27.309 13.92 26.795 13.27 26.71 C 13.025 24.188 12.893 22.845 12.893 22.845 L 12.891 22.827 C 12.652 21.112 9.729 18.522 7.593 17.68 C 6.567 17.276 5.785 17.285 5.266 17.705 C 5.093 17.849 4.957 18.034 4.871 18.243 C 4.866 18.198 4.864 18.154 4.864 18.109 C 4.865 18.085 4.864 18.061 4.86 18.036 L 4.041 12.297 C 4.002 11.354 3.435 10.513 2.577 10.122 C 1.943 9.834 1.202 9.923 0.654 10.353 C 0.322 10.627 -0.193 11.28 0.074 12.569 L 0.935 21.344 C 1.017 22.415 1.603 23.384 2.514 23.953 L 6.517 27.074 C 6.544 27.096 6.57 27.114 6.59 27.13 L 6.613 27.459 L 6.612 27.459 C 5.91 27.628 5.446 28.295 5.528 29.012 L 5.832 31.606 L 5.833 31.606 C 5.859 31.834 6.053 32.007 6.283 32.007 C 6.3 32.007 6.318 32.006 6.336 32.005 L 14.413 31.055 C 14.662 31.026 14.84 30.801 14.811 30.553 L 14.504 27.959 Z  M 3.059 23.23 C 3.05 23.224 3.042 23.217 3.033 23.212 L 3.033 23.211 C 2.345 22.795 1.9 22.071 1.839 21.268 L 1.839 21.259 L 0.975 12.455 C 0.972 12.437 0.97 12.421 0.966 12.404 C 0.834 11.783 0.93 11.302 1.231 11.051 L 1.233 11.051 C 1.521 10.839 1.903 10.803 2.227 10.958 C 2.782 11.216 3.139 11.774 3.139 12.387 C 3.139 12.396 3.139 12.404 3.141 12.413 L 3.956 18.129 C 3.956 19.346 5.183 20.776 7.813 22.623 L 7.814 22.623 C 7.913 22.695 8.036 22.726 8.157 22.707 C 8.277 22.686 8.385 22.62 8.455 22.519 C 8.525 22.419 8.552 22.295 8.53 22.174 C 8.507 22.055 8.436 21.949 8.335 21.881 C 7.363 21.233 6.466 20.476 5.663 19.627 C 5.568 19.011 5.63 18.58 5.84 18.41 C 6.075 18.219 6.593 18.261 7.262 18.524 C 9.252 19.306 11.81 21.699 11.993 22.944 C 12.006 23.07 12.135 24.391 12.367 26.772 L 7.515 27.341 L 7.493 27.038 L 7.492 27.038 C 7.509 26.793 7.386 26.56 7.175 26.433 C 7.147 26.414 7.115 26.392 7.073 26.36 L 3.059 23.23 Z  M 6.68 31.051 L 6.429 28.907 L 6.427 28.907 C 6.394 28.621 6.599 28.362 6.884 28.329 L 13.027 27.608 C 13.047 27.605 13.068 27.604 13.088 27.604 C 13.351 27.604 13.573 27.802 13.605 28.064 L 13.857 30.208 L 6.68 31.051 Z  M 31.346 10.353 C 30.798 9.923 30.057 9.835 29.423 10.122 C 28.565 10.513 27.998 11.355 27.959 12.298 L 27.14 18.035 C 27.136 18.06 27.135 18.084 27.136 18.108 C 27.136 18.153 27.134 18.198 27.129 18.242 C 27.043 18.034 26.907 17.849 26.732 17.706 C 26.215 17.285 25.432 17.277 24.406 17.68 C 22.27 18.519 19.347 21.112 19.108 22.827 L 19.105 22.845 C 19.105 22.845 18.973 24.187 18.728 26.71 C 18.079 26.795 17.571 27.309 17.494 27.96 L 17.189 30.553 L 17.19 30.553 C 17.161 30.802 17.339 31.027 17.588 31.056 L 25.665 32.005 L 25.665 32.004 C 25.683 32.007 25.701 32.008 25.718 32.008 C 25.949 32.008 26.142 31.835 26.168 31.606 L 26.472 29.013 L 26.473 29.011 C 26.557 28.293 26.09 27.626 25.387 27.458 L 25.41 27.13 C 25.432 27.113 25.457 27.095 25.483 27.073 L 29.486 23.954 C 30.398 23.383 30.983 22.415 31.065 21.342 L 31.926 12.57 C 32.193 11.281 31.678 10.628 31.346 10.353 L 31.346 10.353 Z  M 25.573 28.907 L 25.321 31.051 L 18.144 30.208 L 18.395 28.065 C 18.43 27.779 18.687 27.575 18.973 27.608 L 25.116 28.329 C 25.401 28.362 25.606 28.621 25.573 28.907 L 25.573 28.907 Z  M 31.035 12.404 C 31.031 12.421 31.028 12.437 31.026 12.455 L 30.162 21.259 L 30.162 21.268 C 30.102 22.071 29.657 22.795 28.967 23.211 C 28.958 23.217 28.95 23.222 28.941 23.229 L 24.928 26.36 C 24.885 26.393 24.854 26.414 24.825 26.433 L 24.826 26.433 C 24.616 26.559 24.494 26.792 24.509 27.036 L 24.488 27.341 L 19.635 26.772 C 19.867 24.391 19.997 23.07 20.01 22.944 C 20.192 21.697 22.751 19.307 24.74 18.524 C 25.41 18.261 25.928 18.219 26.163 18.41 C 26.372 18.58 26.433 19.011 26.34 19.627 L 26.339 19.626 C 25.536 20.476 24.64 21.233 23.667 21.881 C 23.565 21.949 23.495 22.054 23.472 22.175 C 23.45 22.295 23.477 22.418 23.547 22.518 C 23.617 22.618 23.724 22.686 23.845 22.706 C 23.966 22.726 24.09 22.695 24.187 22.624 C 26.817 20.778 28.044 19.348 28.044 18.129 L 28.858 12.413 C 28.858 12.404 28.86 12.397 28.86 12.388 C 28.86 11.774 29.217 11.216 29.772 10.959 C 30.096 10.803 30.478 10.838 30.766 11.051 C 31.072 11.302 31.167 11.783 31.034 12.404 L 31.035 12.404 Z  M 20.731 29.134 C 20.704 29.363 20.511 29.534 20.28 29.536 C 20.262 29.536 20.244 29.534 20.228 29.532 L 19.262 29.419 L 19.261 29.419 C 19.013 29.389 18.835 29.164 18.864 28.916 C 18.893 28.667 19.118 28.489 19.367 28.519 L 20.333 28.631 C 20.582 28.661 20.759 28.885 20.731 29.134 L 20.731 29.134 Z "
                  fill="rgb(0,0,0)"/>
            <path d=" M 12.903 8.444 C 13.085 8.444 13.232 8.296 13.232 8.115 C 13.232 7.933 13.085 7.785 12.903 7.785 L 8.744 7.785 C 8.562 7.785 8.415 7.933 8.415 8.115 C 8.415 8.296 8.562 8.444 8.744 8.444 L 9.931 8.444 C 10.373 8.444 10.744 8.729 10.881 9.124 L 8.744 9.124 C 8.562 9.124 8.415 9.272 8.415 9.454 C 8.415 9.635 8.562 9.783 8.744 9.783 L 10.881 9.783 C 10.745 10.178 10.373 10.463 9.931 10.463 L 8.744 10.463 C 8.562 10.463 8.415 10.611 8.415 10.792 C 8.415 10.974 8.562 11.122 8.744 11.122 L 9.8 11.122 L 12.677 13.867 C 12.741 13.928 12.822 13.957 12.904 13.957 C 12.991 13.957 13.078 13.923 13.142 13.855 C 13.268 13.724 13.263 13.516 13.13 13.39 L 10.602 10.978 C 11.091 10.762 11.457 10.318 11.565 9.782 L 12.903 9.782 C 13.085 9.782 13.232 9.635 13.232 9.453 C 13.232 9.271 13.085 9.124 12.903 9.124 L 11.565 9.124 C 11.514 8.87 11.401 8.641 11.249 8.443 L 12.903 8.444 Z "
                  fill="rgb(0,0,0)"/>
        </g>
    </g>
</svg>