<?xml version="1.0" encoding="UTF-8" standalone="no"?><!-- Generator: Gravit.io -->
<svg xmlns="http://www.w3.org/2000/svg" style="isolation:isolate"
     viewBox="0 0 32 32" width="32pt" height="32pt">
    <defs>
        <clipPath id="_clipPath_DMuqWtstQVCxTVol27n1zjWjt5Xmj7J7">
            <rect width="32" height="32"/>
        </clipPath>
    </defs>
    <g clip-path="url(#_clipPath_DMuqWtstQVCxTVol27n1zjWjt5Xmj7J7)">
        <path d=" M 6.267 7.784 C 6.133 7.788 6.008 7.719 5.94 7.604 C 5.872 7.489 5.872 7.346 5.94 7.231 C 6.008 7.116 6.133 7.047 6.267 7.051 L 16.069 7.051 C 16.202 7.047 16.327 7.116 16.396 7.231 C 16.464 7.346 16.464 7.489 16.396 7.604 C 16.327 7.719 16.202 7.788 16.069 7.784 L 6.267 7.784 Z  M 6.267 5.736 L 16.069 5.736 C 16.202 5.74 16.327 5.671 16.396 5.556 C 16.464 5.441 16.464 5.298 16.396 5.183 C 16.327 5.068 16.202 4.999 16.069 5.003 L 6.267 5.003 C 6.133 4.999 6.008 5.068 5.94 5.183 C 5.872 5.298 5.872 5.441 5.94 5.556 C 6.008 5.671 6.133 5.74 6.267 5.736 Z  M 6.267 3.688 L 12.305 3.688 C 12.439 3.692 12.564 3.623 12.632 3.508 C 12.7 3.393 12.7 3.25 12.632 3.135 C 12.564 3.02 12.439 2.951 12.305 2.955 L 6.267 2.955 C 6.133 2.951 6.008 3.02 5.94 3.135 C 5.872 3.25 5.872 3.393 5.94 3.508 C 6.008 3.623 6.133 3.692 6.267 3.688 Z  M 30.845 9.91 L 27.526 13.93 L 27.526 30.396 C 27.526 30.493 27.488 30.586 27.419 30.655 C 27.35 30.724 27.257 30.762 27.16 30.762 L 12.276 30.762 C 11.991 31.507 11.277 31.999 10.479 32 L 2.626 32 C 1.564 31.999 0.703 31.138 0.703 30.076 L 0.703 18.708 C 0.704 17.646 1.564 16.785 2.626 16.784 L 3.137 16.784 L 3.137 0.367 C 3.137 0.269 3.176 0.176 3.244 0.107 C 3.313 0.039 3.406 0 3.504 0 L 19.711 0 C 19.808 0 19.901 0.038 19.97 0.107 L 22.293 2.432 L 27.16 2.432 C 27.257 2.432 27.35 2.47 27.419 2.539 C 27.488 2.608 27.526 2.701 27.526 2.798 L 27.526 7.587 L 27.731 7.338 C 27.995 7.01 28.359 6.778 28.768 6.677 C 29.159 6.574 29.576 6.661 29.895 6.911 L 30.855 7.703 C 31.449 8.194 31.445 9.183 30.845 9.909 L 30.845 9.91 Z  M 29.16 10.799 C 28.595 10.147 27.925 9.594 27.176 9.164 L 22.171 15.226 C 22.919 15.657 23.589 16.21 24.155 16.862 L 29.16 10.799 Z  M 21.651 17.875 L 23.527 17.259 C 23.056 16.732 22.508 16.28 21.902 15.918 L 21.651 17.875 Z  M 20.077 5.1 L 23.926 5.1 L 20.077 1.251 L 20.077 5.1 Z  M 23.029 3.164 L 25.071 5.206 C 25.079 5.215 25.088 5.225 25.095 5.234 L 25.095 5.234 C 25.103 5.243 25.11 5.252 25.116 5.262 L 25.116 5.262 C 25.149 5.312 25.169 5.369 25.175 5.428 L 25.175 5.434 C 25.177 5.444 25.177 5.454 25.177 5.464 L 25.177 10.431 L 26.794 8.473 L 26.794 3.164 L 23.029 3.164 Z  M 3.87 16.784 L 8.788 16.784 L 8.788 14.862 C 8.788 14.765 8.826 14.672 8.895 14.603 C 8.964 14.535 9.057 14.496 9.154 14.496 L 11.249 14.496 C 11.346 14.496 11.439 14.535 11.508 14.603 C 11.577 14.672 11.615 14.765 11.615 14.862 L 11.615 17.158 C 12.11 17.52 12.403 18.096 12.403 18.709 L 12.403 21.807 L 12.743 21.807 L 12.743 13.318 C 12.743 13.116 12.908 12.951 13.11 12.951 L 15.205 12.951 C 15.407 12.952 15.571 13.116 15.571 13.318 L 15.571 21.806 L 16.699 21.806 L 16.699 16.129 C 16.699 16.032 16.738 15.938 16.807 15.87 C 16.876 15.801 16.969 15.763 17.067 15.763 L 19.162 15.763 C 19.259 15.763 19.352 15.801 19.42 15.87 C 19.489 15.939 19.528 16.032 19.528 16.129 L 19.528 21.806 L 21.898 21.806 C 22.096 21.812 22.253 21.974 22.253 22.172 C 22.253 22.37 22.096 22.533 21.898 22.539 L 12.405 22.539 L 12.405 24.101 L 22.048 24.101 C 22.25 24.101 22.414 24.265 22.414 24.467 C 22.414 24.67 22.25 24.834 22.048 24.834 L 12.403 24.834 L 12.403 27.598 L 24.444 27.598 L 24.444 17.664 L 24.437 17.672 C 24.433 17.676 24.429 17.68 24.426 17.684 C 24.422 17.688 24.417 17.694 24.412 17.699 C 24.408 17.703 24.4 17.71 24.394 17.716 L 24.381 17.727 C 24.373 17.733 24.366 17.738 24.357 17.744 L 24.347 17.751 C 24.336 17.757 24.325 17.763 24.314 17.769 L 24.31 17.771 C 24.297 17.777 24.283 17.782 24.269 17.787 L 24.269 17.787 L 21.329 18.753 C 21.292 18.765 21.254 18.772 21.215 18.772 C 21.11 18.772 21.009 18.727 20.94 18.648 C 20.87 18.569 20.838 18.463 20.851 18.359 L 21.242 15.289 L 21.242 15.282 C 21.244 15.272 21.246 15.262 21.248 15.252 L 21.25 15.24 C 21.253 15.23 21.256 15.22 21.26 15.21 L 21.263 15.201 C 21.273 15.176 21.286 15.153 21.301 15.13 L 21.31 15.119 C 21.314 15.114 21.317 15.108 21.322 15.103 L 24.444 11.321 L 24.444 5.831 L 19.711 5.831 C 19.614 5.831 19.52 5.792 19.452 5.724 C 19.383 5.655 19.345 5.562 19.345 5.465 L 19.345 0.733 L 3.87 0.733 L 3.87 16.784 Z  M 14.838 13.684 L 13.475 13.684 L 13.475 21.806 L 14.838 21.806 L 14.838 13.684 Z  M 18.794 16.496 L 17.432 16.496 L 17.432 21.806 L 18.794 21.806 L 18.794 16.496 Z  M 10.882 15.228 L 9.521 15.228 L 9.521 16.784 L 10.481 16.784 C 10.616 16.784 10.751 16.798 10.884 16.827 L 10.882 15.228 Z  M 11.67 30.076 L 11.67 18.708 C 11.669 18.05 11.137 17.518 10.479 17.517 L 2.626 17.517 C 1.969 17.518 1.436 18.05 1.435 18.708 L 1.435 30.076 C 1.436 30.734 1.969 31.266 2.626 31.267 L 10.479 31.267 C 11.137 31.266 11.669 30.734 11.67 30.076 Z  M 26.794 14.817 L 25.177 16.776 L 25.177 27.964 C 25.177 28.166 25.013 28.33 24.811 28.331 L 12.402 28.331 L 12.402 30.03 L 26.794 30.03 L 26.794 14.817 Z  M 30.389 8.269 L 29.429 7.476 C 29.284 7.373 29.101 7.342 28.931 7.391 C 28.68 7.457 28.457 7.602 28.295 7.805 L 27.648 8.587 C 28.389 9.029 29.058 9.581 29.632 10.224 L 30.279 9.44 C 30.616 9.035 30.666 8.498 30.389 8.269 Z  M 10.516 19.145 L 10.516 21.711 C 10.516 21.995 10.285 22.225 10.001 22.226 L 3.164 22.226 C 2.88 22.225 2.65 21.995 2.649 21.711 L 2.649 19.145 C 2.651 18.861 2.881 18.631 3.164 18.631 L 10.001 18.631 C 10.285 18.631 10.515 18.861 10.516 19.145 Z  M 9.783 19.362 L 3.383 19.362 L 3.383 21.493 L 9.783 21.493 L 9.783 19.362 Z  M 3.074 24.63 L 4.658 24.63 L 4.658 23.897 L 3.074 23.897 L 3.074 24.63 Z  M 5.76 24.63 L 7.345 24.63 L 7.345 23.897 L 5.76 23.897 L 5.76 24.63 Z  M 8.447 24.63 L 10.032 24.63 L 10.032 23.897 L 8.447 23.897 L 8.447 24.63 Z  M 3.074 27.154 L 4.658 27.154 L 4.658 26.421 L 3.074 26.421 L 3.074 27.154 Z  M 5.76 27.154 L 7.345 27.154 L 7.345 26.421 L 5.76 26.421 L 5.76 27.154 Z  M 3.074 29.679 L 4.658 29.679 L 4.658 28.946 L 3.074 28.946 L 3.074 29.679 Z  M 5.76 29.679 L 7.345 29.679 L 7.345 28.946 L 5.76 28.946 L 5.76 29.679 Z  M 8.447 27.154 L 10.032 27.154 L 10.032 26.421 L 8.447 26.421 L 8.447 27.154 Z  M 8.447 29.679 L 10.032 29.679 L 10.032 28.946 L 8.447 28.946 L 8.447 29.679 Z "
              fill="rgb(0,0,0)"/>
    </g>
</svg>